<svg xmlns="http://www.w3.org/2000/svg" width="1400" height="900" viewBox="0 0 1400 900">
<path d="M381.4 472.2 L492.8 40.9 L522.8 60.5 L774.0 240.1 L955.6 422.2 L967.8 457.2 L692.5 582.6 L392.4 500.7 Z" fill="#ff9d3d" opacity="0.07" stroke="#ff9d3d" stroke-opacity="0.22" stroke-width="2" stroke-linejoin="round"/>
<path d="M967.8 457.2 Q929.9 456.3 897.1 475.2" fill="none" stroke="#ff9d3d" stroke-width="2.4" stroke-dasharray="7 6" opacity="0.72" stroke-linecap="round"/>
<path d="M897.1 475.2 Q872.9 469.5 849.3 477.1" fill="none" stroke="#ff9d3d" stroke-width="2.4" stroke-dasharray="7 6" opacity="0.72" stroke-linecap="round"/>
<path d="M849.3 477.1 Q824.1 489.4 809.0 512.9" fill="none" stroke="#ff9d3d" stroke-width="2.4" stroke-dasharray="7 6" opacity="0.72" stroke-linecap="round"/>
<path d="M809.0 512.9 Q741.0 531.4 692.5 582.6" fill="none" stroke="#ff9d3d" stroke-width="2.4" stroke-dasharray="7 6" opacity="0.72" stroke-linecap="round"/>
<path d="M692.5 582.6 Q660.7 432.0 555.3 319.7" fill="none" stroke="#ff9d3d" stroke-width="2.4" stroke-dasharray="7 6" opacity="0.72" stroke-linecap="round"/>
<path d="M555.3 319.7 Q575.3 185.6 522.8 60.5" fill="none" stroke="#ff9d3d" stroke-width="2.4" stroke-dasharray="7 6" opacity="0.72" stroke-linecap="round"/>
<path d="M522.8 60.5 Q510.6 46.5 492.8 40.9" fill="none" stroke="#ff9d3d" stroke-width="2.4" stroke-dasharray="7 6" opacity="0.72" stroke-linecap="round"/>
<path d="M492.8 40.9 Q513.6 86.6 555.1 114.8" fill="none" stroke="#ff9d3d" stroke-width="2.4" stroke-dasharray="7 6" opacity="0.72" stroke-linecap="round"/>
<path d="M555.1 114.8 Q507.0 134.7 476.2 176.6" fill="none" stroke="#ff9d3d" stroke-width="2.4" stroke-dasharray="7 6" opacity="0.72" stroke-linecap="round"/>
<path d="M476.2 176.6 Q540.8 172.1 593.8 134.7" fill="none" stroke="#ff9d3d" stroke-width="2.4" stroke-dasharray="7 6" opacity="0.72" stroke-linecap="round"/>
<path d="M593.8 134.7 Q669.2 212.7 774.0 240.1" fill="none" stroke="#ff9d3d" stroke-width="2.4" stroke-dasharray="7 6" opacity="0.72" stroke-linecap="round"/>
<path d="M774.0 240.1 Q769.4 336.4 815.4 421.1" fill="none" stroke="#ff9d3d" stroke-width="2.4" stroke-dasharray="7 6" opacity="0.72" stroke-linecap="round"/>
<path d="M815.4 421.1 Q837.1 427.3 858.9 421.4" fill="none" stroke="#ff9d3d" stroke-width="2.4" stroke-dasharray="7 6" opacity="0.72" stroke-linecap="round"/>
<path d="M858.9 421.4 Q883.1 428.0 907.3 421.1" fill="none" stroke="#ff9d3d" stroke-width="2.4" stroke-dasharray="7 6" opacity="0.72" stroke-linecap="round"/>
<path d="M907.3 421.1 Q931.3 428.4 955.6 422.2" fill="none" stroke="#ff9d3d" stroke-width="2.4" stroke-dasharray="7 6" opacity="0.72" stroke-linecap="round"/>
<path d="M955.6 422.2 Q951.4 446.5 960.4 469.6" fill="none" stroke="#ff9d3d" stroke-width="2.4" stroke-dasharray="7 6" opacity="0.72" stroke-linecap="round"/>
<path d="M960.4 469.6 Q670.5 389.8 381.4 472.2" fill="none" stroke="#ff9d3d" stroke-width="2.4" stroke-dasharray="7 6" opacity="0.72" stroke-linecap="round"/>
<path d="M381.4 472.2 Q382.9 488.0 392.4 500.7" fill="none" stroke="#ff9d3d" stroke-width="2.4" stroke-dasharray="7 6" opacity="0.72" stroke-linecap="round"/>
<path d="M392.4 500.7 Q416.9 501.5 438.2 489.4" fill="none" stroke="#ff9d3d" stroke-width="2.4" stroke-dasharray="7 6" opacity="0.72" stroke-linecap="round"/>
<path d="M438.2 489.4 Q476.6 489.7 509.5 470.0" fill="none" stroke="#ff9d3d" stroke-width="2.4" stroke-dasharray="7 6" opacity="0.72" stroke-linecap="round"/>
<path d="M509.5 470.0 Q528.7 480.6 550.7 479.8" fill="none" stroke="#ff9d3d" stroke-width="2.4" stroke-dasharray="7 6" opacity="0.72" stroke-linecap="round"/>
<path d="M550.7 479.8 Q562.8 495.1 581.2 501.9" fill="none" stroke="#ff9d3d" stroke-width="2.4" stroke-dasharray="7 6" opacity="0.72" stroke-linecap="round"/>
<path d="M581.2 501.9 Q615.2 488.0 637.1 458.5" fill="none" stroke="#ff9d3d" stroke-width="2.4" stroke-dasharray="7 6" opacity="0.72" stroke-linecap="round"/>
<path d="M637.1 458.5 Q667.4 469.3 698.8 462.8" fill="none" stroke="#ff9d3d" stroke-width="2.4" stroke-dasharray="7 6" opacity="0.72" stroke-linecap="round"/>
<path d="M698.8 462.8 Q686.6 501.3 696.2 540.6" fill="none" stroke="#ff9d3d" stroke-width="2.4" stroke-dasharray="7 6" opacity="0.72" stroke-linecap="round"/>
<path d="M696.2 540.6 Q696.8 549.0 701.8 555.8" fill="none" stroke="#ff9d3d" stroke-width="2.4" stroke-dasharray="7 6" opacity="0.72" stroke-linecap="round"/>
<path d="M701.8 555.8 Q707.7 500.2 683.9 449.5" fill="none" stroke="#ff9d3d" stroke-width="2.4" stroke-dasharray="7 6" opacity="0.72" stroke-linecap="round"/>
<path d="M683.9 449.5 Q670.4 428.8 648.1 418.1" fill="none" stroke="#ff9d3d" stroke-width="2.4" stroke-dasharray="7 6" opacity="0.72" stroke-linecap="round"/>
<path d="M648.1 418.1 Q624.5 411.9 601.2 418.7" fill="none" stroke="#ff9d3d" stroke-width="2.4" stroke-dasharray="7 6" opacity="0.72" stroke-linecap="round"/>
<path d="M601.2 418.7 Q571.1 392.4 531.7 385.5" fill="none" stroke="#ff9d3d" stroke-width="2.4" stroke-dasharray="7 6" opacity="0.72" stroke-linecap="round"/>
<circle cx="967.8" cy="457.2" r="16.0" fill="#ffd166" fill-opacity="0.34" stroke="#ffd166" stroke-width="2"/>
<circle cx="897.1" cy="475.2" r="7.4" fill="#ffd166" fill-opacity="0.34" stroke="#ffd166" stroke-width="2"/>
<circle cx="849.3" cy="477.1" r="7.1" fill="#ffd166" fill-opacity="0.34" stroke="#ffd166" stroke-width="2"/>
<circle cx="809.0" cy="512.9" r="7.2" fill="#ffd166" fill-opacity="0.34" stroke="#ffd166" stroke-width="2"/>
<circle cx="692.5" cy="582.6" r="5.0" fill="#ffd166" fill-opacity="0.34" stroke="#ffd166" stroke-width="2"/>
<circle cx="555.3" cy="319.7" r="5.0" fill="#ffd166" fill-opacity="0.34" stroke="#ffd166" stroke-width="2"/>
<circle cx="522.8" cy="60.5" r="5.0" fill="#ffd166" fill-opacity="0.34" stroke="#ffd166" stroke-width="2"/>
<circle cx="492.8" cy="40.9" r="5.3" fill="#ffd166" fill-opacity="0.34" stroke="#ffd166" stroke-width="2"/>
<circle cx="555.1" cy="114.8" r="7.8" fill="#ffd166" fill-opacity="0.34" stroke="#ffd166" stroke-width="2"/>
<circle cx="476.2" cy="176.6" r="5.0" fill="#ffd166" fill-opacity="0.34" stroke="#ffd166" stroke-width="2"/>
<circle cx="593.8" cy="134.7" r="5.0" fill="#ffd166" fill-opacity="0.34" stroke="#ffd166" stroke-width="2"/>
<circle cx="774.0" cy="240.1" r="5.6" fill="#ffd166" fill-opacity="0.34" stroke="#ffd166" stroke-width="2"/>
<circle cx="815.4" cy="421.1" r="7.2" fill="#ffd166" fill-opacity="0.34" stroke="#ffd166" stroke-width="2"/>
<circle cx="858.9" cy="421.4" r="6.6" fill="#ffd166" fill-opacity="0.34" stroke="#ffd166" stroke-width="2"/>
<circle cx="907.3" cy="421.1" r="6.1" fill="#ffd166" fill-opacity="0.34" stroke="#ffd166" stroke-width="2"/>
<circle cx="955.6" cy="422.2" r="6.8" fill="#ffd166" fill-opacity="0.34" stroke="#ffd166" stroke-width="2"/>
<circle cx="381.4" cy="472.2" r="9.8" fill="#ffd166" fill-opacity="0.34" stroke="#ffd166" stroke-width="2"/>
<circle cx="392.4" cy="500.7" r="5.9" fill="#ffd166" fill-opacity="0.34" stroke="#ffd166" stroke-width="2"/>
<circle cx="438.2" cy="489.4" r="7.5" fill="#ffd166" fill-opacity="0.34" stroke="#ffd166" stroke-width="2"/>
<circle cx="509.5" cy="470.0" r="7.1" fill="#ffd166" fill-opacity="0.34" stroke="#ffd166" stroke-width="2"/>
<circle cx="550.7" cy="479.8" r="6.7" fill="#ffd166" fill-opacity="0.34" stroke="#ffd166" stroke-width="2"/>
<circle cx="581.2" cy="501.9" r="6.3" fill="#ffd166" fill-opacity="0.34" stroke="#ffd166" stroke-width="2"/>
<circle cx="637.1" cy="458.5" r="6.6" fill="#ffd166" fill-opacity="0.34" stroke="#ffd166" stroke-width="2"/>
<circle cx="698.8" cy="462.8" r="8.3" fill="#ffd166" fill-opacity="0.34" stroke="#ffd166" stroke-width="2"/>
<circle cx="696.2" cy="540.6" r="21.4" fill="#ffd166" fill-opacity="0.34" stroke="#ffd166" stroke-width="2"/>
<circle cx="648.1" cy="418.1" r="7.4" fill="#ffd166" fill-opacity="0.34" stroke="#ffd166" stroke-width="2"/>
<circle cx="601.2" cy="418.7" r="8.3" fill="#ffd166" fill-opacity="0.34" stroke="#ffd166" stroke-width="2"/>
<circle cx="531.7" cy="385.5" r="8.6" fill="#ffd166" fill-opacity="0.34" stroke="#ffd166" stroke-width="2"/>
<circle cx="967.8" cy="457.2" r="5" fill="#7dffa8"/>
<circle cx="531.7" cy="385.5" r="5" fill="#ff5c7a"/>
<text x="708.2" y="511.2" font-size="19" font-family="Menlo, monospace" stroke="#06090f" stroke-width="4" paint-order="stroke" fill="rgba(255,255,255,0.94)">1 h 33 min</text>
<text x="979.8" y="433.2" font-size="19" font-family="Menlo, monospace" stroke="#06090f" stroke-width="4" paint-order="stroke" fill="rgba(255,255,255,0.94)">42 min</text>
<text x="979.8" y="483.2" font-size="19" font-family="Menlo, monospace" stroke="#06090f" stroke-width="4" paint-order="stroke" fill="rgba(255,255,255,0.94)">12:49 AM</text>
<text x="543.7" y="411.5" font-size="19" font-family="Menlo, monospace" stroke="#06090f" stroke-width="4" paint-order="stroke" fill="rgba(255,255,255,0.94)">9:06 PM</text>

</svg>
